# xmcd CD database file
#
# Track frame offsets:
#	150
#	10820
#	26537
#	41648
#	51086
#	60309
#	72192
#	86042
#	96350
#	110534
#	118337
#
# Disc length: 1739 seconds
#
# Revision: 0
# Processed by: cddbd v1.5.2PL0 Copyright (c) Steve Scherf et al.
# Submitted via: CDex 1.70beta2
#
DISCID=9006c90b
DTITLE=Roger Whittaker - Superstar Series_Roger Whittaker
DYEAR=2006
DGENRE=Country
TTITLE0=Durham Town
TTITLE1=The Last Farewell
TTITLE2=All of my Life
TTITLE3=New World in the Morning
TTITLE4=Mexican Whistler
TTITLE5=If I Were a Rich Man
TTITLE6=Mammy Blue
TTITLE7=From the People
TTITLE8=Hello Good Morning
TTITLE9=Changeup
TTITLE10=Elizabethan Serenade
EXTD=YEAR: 2006
EXTT0=
EXTT1=
EXTT2=
EXTT3=
EXTT4=
EXTT5=
EXTT6=
EXTT7=
EXTT8=
EXTT9=
EXTT10=
PLAYORDER=
